<?xml version="1.0" encoding="UTF-8"?>
<svg xmlns="http://www.w3.org/2000/svg" width="16" height="16" viewBox="-1 -1 26 26"
     style="transform:rotate(0deg);transform-origin:50% 50%;">
  <style>
    @keyframes draw {
      0%          { stroke-dasharray:0 100; stroke-dashoffset:-100; opacity:1; animation-timing-function:cubic-bezier(0.455, 0.03, 0.515, 0.955); }
      39.0625%    { stroke-dasharray:100 100; stroke-dashoffset:0; opacity:1; animation-timing-function:cubic-bezier(0.55, 0.055, 0.675, 0.19); }
      78.1250%    { stroke-dasharray:0 100; stroke-dashoffset:0; opacity:1; }
      78.2250%    { opacity:0; }
      100%        { stroke-dasharray:0 100; stroke-dashoffset:0; opacity:0; }
    }
    .m { stroke: #ffffff; animation: draw 1s linear infinite; }
    .e { fill: #ffffff; }
  </style>
  <path class="m" pathLength="100" stroke-width="2" fill="none" stroke-linecap="round" stroke-linejoin="round" d="M7.5 12c0-3.1 2-5.5 4.5-5.5s4.5 2.4 4.5 5.5c0 1.8-1.3 3.2-3 3.2h-3C8.8 15.2 7.5 13.8 7.5 12z"/>
  <circle class="e" cx="10.3" cy="10.7" r="0.85"/>
  <circle class="e" cx="13.7" cy="10.7" r="0.85"/>
  <path class="m" pathLength="100" stroke-width="2" fill="none" stroke-linecap="round" stroke-linejoin="round" d="M9 15.3c-1.1 2.3-2.8 3.5-2.2 5.2"/>
  <path class="m" pathLength="100" stroke-width="2" fill="none" stroke-linecap="round" stroke-linejoin="round" d="M11 15.4c-.5 2.2-1.1 4 .4 5.1"/>
  <path class="m" pathLength="100" stroke-width="2" fill="none" stroke-linecap="round" stroke-linejoin="round" d="M13 15.4c.5 2.2 1.1 4-.4 5.1"/>
  <path class="m" pathLength="100" stroke-width="2" fill="none" stroke-linecap="round" stroke-linejoin="round" d="M15 15.3c1.1 2.3 2.8 3.5 2.2 5.2"/>
  <path class="m" pathLength="100" stroke-width="2" fill="none" stroke-linecap="round" stroke-linejoin="round" d="M8 13.4c-2.3.6-3.7 1.6-3.3 3.6"/>
  <path class="m" pathLength="100" stroke-width="2" fill="none" stroke-linecap="round" stroke-linejoin="round" d="M16 13.4c2.3.6 3.7 1.6 3.3 3.6"/>
</svg>
